<svg width="100" height="100" viewBox="0 0 100 100" fill="none" xmlns="http://www.w3.org/2000/svg">
  <g clip-path="url(#clip0_1124_225)">
    <path d="M50 100C77.6142 100 100 77.6142 100 50C100 22.3858 77.6142 0 50 0C22.3858 0 0 22.3858 0 50C0 77.6142 22.3858 100 50 100Z" fill="#0D0F0F"/>
    <path fill-rule="evenodd" clip-rule="evenodd" d="M82 24.452L69.352 31.796C75.512 41.267 78.59 50.02 78.59 58.046C78.59 64.628 76.621 69.904 72.695 73.876C68.757 77.854 63.476 79.839 56.824 79.839C45.711 79.839 33.105 74.099 19 62.619L29.094 52.742C38.75 61.415 47.824 65.747 56.34 65.747C59.418 65.747 61.547 65.188 62.719 64.064C63.899 62.939 64.485 60.853 64.485 57.805C64.485 51.705 62.618 46.324 58.891 41.671L49.895 54.189V20L82 24.452Z" fill="white"/>
  </g>
  <defs>
    <clipPath id="clip0_1124_225">
      <rect width="100" height="100" fill="white"/>
    </clipPath>
  </defs>
</svg>
